<?xml version="1.0" encoding="UTF-8"?>
<svg id="Layer_1" xmlns="http://www.w3.org/2000/svg" viewBox="0 0 1080 480">
  <defs>
    <style>
      .cls-1 {
        fill: #234090;
      }

      .cls-2 {
        fill: #ebe96b;
      }
    </style>
  </defs>
  <rect class="cls-1" y="-1.74" width="1080" height="483.48"/>
  <g>
    <path class="cls-2" d="M443.76,210.74l5.52,4.58c5.29,5.05,10.46,10.11,15.75,15.04,5.29-4.94,10.46-9.99,15.75-15.04l5.41-4.58v43.02h20.69v-85.8h-.59l-41.25,37.49-41.26-37.49h-.47v85.8h20.45v-43.02Z"/>
    <path class="cls-2" d="M561.05,228.49v-59.36h-21.63v59.59c0,5.99-3.29,8.7-9.17,8.7-3.17,0-6.82-1.06-8.46-1.88v17.75c2.12,1.06,6.58,2.12,12.22,2.12,16.81,0,27.03-7.29,27.03-26.92Z"/>
    <path class="cls-2" d="M635.57,169.14h-28.33v84.62h28.44c29.5,0,47.84-17.75,47.84-42.31s-18.34-42.31-47.95-42.31ZM635.45,235.66h-6.7v-48.42h6.58c17.28,0,26.45,11.05,26.45,24.21s-9.17,24.21-26.33,24.21Z"/>
    <path class="cls-2" d="M764.97,197.93c0-19.04-13.99-28.8-34.2-28.8h-30.79v84.62h21.04v-27.86h9.4l13.63,27.86h22.45l-17.04-31.38c9.29-4.11,15.51-12.22,15.51-24.45ZM731.83,208.75h-10.81v-21.51h10.7c6.46,0,11.52,3.29,11.52,10.7s-4.94,10.81-11.4,10.81Z"/>
    <polygon class="cls-2" points="839.61 235.66 803.87 235.66 803.87 219.44 832.91 219.44 832.91 202.28 803.87 202.28 803.87 187.24 837.84 187.24 837.84 169.14 782.37 169.14 782.37 253.76 839.61 253.76 839.61 235.66"/>
    <path class="cls-2" d="M888.85,167.96l-42.08,85.8h22.45l5.88-12.93h28.44l5.99,12.93h22.45l-42.08-85.8h-1.06ZM881.33,226.38c2.35-5.41,6.93-17.39,8.11-20.22,1.65,5.17,5.05,13.52,7.99,20.22h-16.1Z"/>
    <path class="cls-2" d="M1026.95,167.96l-41.25,37.49-41.26-37.49h-.47v85.8h20.45v-43.02l5.52,4.58c5.29,5.05,10.46,10.11,15.75,15.04,5.29-4.94,10.46-9.99,15.75-15.04l5.41-4.58v43.02h20.69v-85.8h-.59Z"/>
    <polygon class="cls-2" points="415.7 281.08 427.62 281.08 427.62 316.22 439.05 316.22 439.05 281.08 450.97 281.08 450.97 271.52 415.7 271.52 415.7 281.08"/>
    <path class="cls-2" d="M492.75,286.73c0-10.06-7.39-15.21-18.07-15.21h-16.27v44.71h11.11v-14.72h4.97l7.2,14.72h11.86l-9-16.58c4.91-2.17,8.2-6.46,8.2-12.91ZM475.24,292.44h-5.71v-11.36h5.65c3.42,0,6.08,1.74,6.08,5.65s-2.61,5.71-6.02,5.71Z"/>
    <path class="cls-2" d="M519.32,270.9l-22.23,45.33h11.86l3.1-6.83h15.03l3.17,6.83h11.86l-22.23-45.33h-.56ZM515.35,301.75c1.24-2.86,3.66-9.19,4.28-10.68.87,2.73,2.67,7.14,4.22,10.68h-8.51Z"/>
    <path class="cls-2" d="M564.02,283.87c-1.37,3.04-4.16,9.93-4.84,11.42-1.06-3.23-2.92-7.26-4.78-11.42l-5.71-12.36h-12.48l22.72,45.33h.5l22.73-45.33h-12.42l-5.71,12.36Z"/>
    <polygon class="cls-2" points="599.35 298.09 614.68 298.09 614.68 289.03 599.35 289.03 599.35 281.08 617.29 281.08 617.29 271.52 587.99 271.52 587.99 316.22 618.22 316.22 618.22 306.66 599.35 306.66 599.35 298.09"/>
    <polygon class="cls-2" points="638.21 271.52 626.85 271.52 626.85 316.22 654.36 316.22 654.36 306.66 638.21 306.66 638.21 271.52"/>
    <path class="cls-2" d="M710.73,293.99h-9.44c.19,2.17-.06,4.47-.75,6.52l-5.96-6.15c3.35-1.68,8.51-5.15,8.51-12.29,0-6.02-5.96-11.42-13.23-11.42s-13.16,5.46-13.16,11.55c0,4.91,1.68,7.7,4.22,10.62-4.41,2.42-8.26,6.21-8.26,11.61,0,6.71,5.46,12.67,17.45,12.67,4.41,0,8.2-1.06,11.3-3.17l2.17,2.3h11.98l-7.89-8.2c2.61-3.91,3.48-8.88,3.04-14.03ZM689.87,279.22c2.17,0,3.85,1.68,3.85,3.79,0,2.48-2.61,4.28-4.78,5.46-1.8-1.86-2.92-3.29-2.92-5.46s1.74-3.79,3.85-3.79ZM690.18,308.52c-4.72,0-7.2-2.24-7.2-5.03,0-2.24,1.49-3.85,3.35-5.09l8.57,8.82c-1.37.87-3.04,1.3-4.72,1.3Z"/>
    <polygon class="cls-2" points="730.72 281.08 742.64 281.08 742.64 316.22 754.06 316.22 754.06 281.08 765.99 281.08 765.99 271.52 730.72 271.52 730.72 281.08"/>
    <path class="cls-2" d="M794.17,270.65c-13.78,0-23.66,10.43-23.66,23.22s9.87,23.22,23.66,23.22,23.66-10.24,23.66-23.22-9.87-23.22-23.66-23.22ZM794.17,306.72c-7.27,0-12.23-5.9-12.23-12.85s4.97-12.85,12.23-12.85,12.17,5.96,12.17,12.85-4.91,12.85-12.17,12.85Z"/>
    <path class="cls-2" d="M853.4,298.4c0,5.28-2.73,8.32-8.01,8.32s-8.07-3.04-8.07-8.32v-26.89h-11.36v28.13c0,10.49,7.2,17.45,19.43,17.45s19.43-6.95,19.43-17.45v-28.13h-11.42v26.89Z"/>
    <path class="cls-2" d="M909.84,286.73c0-10.06-7.39-15.21-18.07-15.21h-16.27v44.71h11.11v-14.72h4.97l7.2,14.72h11.86l-9-16.58c4.91-2.17,8.2-6.46,8.2-12.91ZM892.33,292.44h-5.71v-11.36h5.65c3.42,0,6.08,1.74,6.08,5.65s-2.61,5.71-6.02,5.71Z"/>
    <rect class="cls-2" x="919.02" y="271.52" width="11.36" height="44.71"/>
    <path class="cls-2" d="M958.14,289.77c-5.22-2.11-7.82-3.54-7.82-5.65,0-2.24,2.61-3.66,6.71-3.66s8.32,1.12,10.99,2.79v-10.49c-2.98-1.24-7.45-2.11-11.92-2.11-10.18,0-16.95,5.34-16.95,13.54s4.84,11.3,12.36,14.16c5.46,2.05,8.26,3.23,8.26,5.59,0,1.86-2.05,2.86-5.71,3.1-1.12.06-2.3.06-3.54-.06-3.6-.31-7.39-1.55-10.56-3.23v10.93c3.35,1.43,8.44,2.42,13.54,2.42,11.11,0,17.32-4.97,17.32-13.23s-5.15-11.11-12.67-14.09Z"/>
    <path class="cls-2" d="M1001.16,290.7l-21.79-19.81h-.25v45.33h10.8v-22.73l2.92,2.42c2.79,2.67,5.53,5.34,8.32,7.95,2.79-2.61,5.53-5.28,8.32-7.95l2.86-2.42v22.73h10.93v-45.33h-.31l-21.79,19.81Z"/>
    <path class="cls-2" d="M286.05,150.57c-29.29,0-55.34,14.1-71.73,35.87-16.36-22.08-42.6-36.43-72.14-36.43-49.48,0-89.73,40.25-89.73,89.73v72.1h35.25v-72.1c0-30.04,24.44-54.48,54.48-54.48s51.98,22.04,54.28,49.99c-.09,1.67-.14,3.35-.14,5.05v72.1h35.25v-.55h.34v-72.1c0-1.48-.04-2.94-.11-4.4,2.51-27.72,25.88-49.52,54.24-49.52,30.01,0,54.44,24.4,54.48,54.4l-.67,79.87v.15c0,30.04-24.44,54.48-54.48,54.48h-4.67c11.67-15.15,18.63-34.11,18.63-54.67v-81.83h-35.25v81.83c0,30.04-24.44,54.48-54.48,54.48s-54.48-24.44-54.48-54.48l-.26-26.76-35.25.34.25,26.51c.05,49.44,40.28,89.64,89.73,89.64,1.23,0,2.45-.03,3.66-.08v.27h72.1c49.45,0,89.69-40.21,89.73-89.65l.67-79.88v-.15c0-49.48-40.25-89.73-89.73-89.73Z"/>
    <circle class="cls-2" cx="285.59" cy="104.91" r="34.88" transform="translate(-13.12 47.1) rotate(-9.22)"/>
    <circle class="cls-2" cx="140.89" cy="104.91" r="34.88" transform="translate(-14.99 23.92) rotate(-9.22)"/>
  </g>
</svg>