<?xml version="1.0" encoding="UTF-8"?>
<svg id="Layer_1" xmlns="http://www.w3.org/2000/svg" viewBox="0 0 1080 1080">
  <defs>
    <style>
      .cls-1 {
        fill: #231f20;
      }
    </style>
  </defs>
  <path class="cls-1" d="M684.87,359.88c-58.98,0-111.45,28.41-144.46,72.25-32.95-44.48-85.81-73.37-145.29-73.37-99.65,0-180.72,81.07-180.72,180.72v145.22h71v-145.22c0-60.5,49.22-109.72,109.72-109.72,57.39,0,104.63,44.29,109.33,100.49-.19,3.42-.3,6.87-.3,10.34v145.22h71v-1.12h.69v-145.22c0-3.01-.08-6.01-.22-8.99,5.12-55.78,52.16-99.61,109.25-99.61,60.45,0,109.64,49.14,109.72,109.57l-1.35,160.86v.3c0,60.5-49.22,109.72-109.72,109.72h-9.4c23.51-30.51,37.52-68.7,37.52-110.1v-164.8h-71v164.8c0,60.5-49.22,109.72-109.72,109.72s-109.72-49.22-109.72-109.72l-.51-53.9-71,.68.51,53.4c.1,99.56,81.13,180.54,180.72,180.54,2.47,0,4.93-.06,7.38-.16v.55h145.22c99.59,0,180.63-80.97,180.72-180.55l1.35-160.88v-.3c0-99.65-81.07-180.72-180.72-180.72Z"/>
  <circle class="cls-1" cx="683.94" cy="267.93" r="70.25"/>
  <circle class="cls-1" cx="392.51" cy="267.93" r="70.25"/>
</svg>