<?xml version="1.0" encoding="UTF-8"?>
<svg id="Layer_1" xmlns="http://www.w3.org/2000/svg" viewBox="0 0 1080 1080">
  <defs>
    <style>
      .cls-1 {
        fill: #234090;
      }
    </style>
  </defs>
  <path class="cls-1" d="M115.83,767.45l8.43,7c8.07,7.72,15.97,15.43,24.04,22.97,8.07-7.54,15.97-15.25,24.04-22.97l8.25-7v65.67h31.58v-130.98h-.9l-62.98,57.24-62.98-57.24h-.72v130.98h31.22v-65.67Z"/>
  <path class="cls-1" d="M294.89,794.55v-90.61h-33.01v90.97c0,9.15-5.02,13.28-14,13.28-4.85,0-10.41-1.61-12.92-2.87v27.1c3.23,1.61,10.05,3.23,18.66,3.23,25.66,0,41.27-11.12,41.27-41.09Z"/>
  <path class="cls-1" d="M408.64,703.94h-43.24v129.19h43.42c45.04,0,73.03-27.09,73.03-64.59s-27.99-64.6-73.21-64.6ZM408.46,805.49h-10.23v-73.92h10.05c26.38,0,40.37,16.86,40.37,36.96s-14,36.96-40.19,36.96Z"/>
  <path class="cls-1" d="M606.18,747.9c0-29.07-21.35-43.96-52.21-43.96h-47.01v129.19h32.12v-42.52h14.35l20.81,42.52h34.27l-26.02-47.91c14.18-6.28,23.69-18.66,23.69-37.32ZM555.58,764.4h-16.51v-32.83h16.33c9.87,0,17.58,5.02,17.58,16.33s-7.54,16.51-17.4,16.51Z"/>
  <polygon class="cls-1" points="717.42 731.57 717.42 703.94 632.73 703.94 632.73 833.13 720.11 833.13 720.11 805.49 665.56 805.49 665.56 780.73 709.88 780.73 709.88 754.54 665.56 754.54 665.56 731.57 717.42 731.57"/>
  <path class="cls-1" d="M795.28,702.14l-64.24,130.98h34.27l8.97-19.74h43.42l9.15,19.74h34.27l-64.24-130.98h-1.61ZM783.8,791.32c3.59-8.25,10.59-26.56,12.38-30.86,2.51,7.9,7.71,20.64,12.2,30.86h-24.58Z"/>
  <path class="cls-1" d="M1006.1,702.14l-62.98,57.24-62.98-57.24h-.72v130.98h31.22v-65.67l8.43,7c8.07,7.72,15.97,15.43,24.04,22.97,8.07-7.54,15.97-15.25,24.04-22.97l8.25-7v65.67h31.58v-130.98h-.9Z"/>
  <polygon class="cls-1" points="73 874.82 91.2 874.82 91.2 928.47 108.64 928.47 108.64 874.82 126.84 874.82 126.84 860.22 73 860.22 73 874.82"/>
  <path class="cls-1" d="M190.62,883.45c0-15.36-11.28-23.22-27.58-23.22h-24.83v68.25h16.97v-22.46h7.58l10.99,22.46h18.1l-13.75-25.31c7.49-3.32,12.51-9.86,12.51-19.72ZM163.89,892.17h-8.72v-17.34h8.63c5.21,0,9.29,2.65,9.29,8.63s-3.98,8.72-9.2,8.72Z"/>
  <path class="cls-1" d="M231.18,859.28l-33.93,69.19h18.1l4.74-10.43h22.94l4.83,10.43h18.1l-33.93-69.19h-.85ZM225.12,906.39c1.9-4.36,5.59-14.03,6.54-16.3,1.33,4.17,4.08,10.9,6.44,16.3h-12.99Z"/>
  <path class="cls-1" d="M299.42,879.09c-2.08,4.64-6.35,15.17-7.39,17.44-1.61-4.93-4.45-11.09-7.3-17.44l-8.72-18.86h-19.05l34.69,69.19h.76l34.69-69.19h-18.96l-8.72,18.86Z"/>
  <polygon class="cls-1" points="353.35 900.79 376.76 900.79 376.76 886.95 353.35 886.95 353.35 874.82 380.74 874.82 380.74 860.22 336 860.22 336 928.47 382.16 928.47 382.16 913.87 353.35 913.87 353.35 900.79"/>
  <polygon class="cls-1" points="412.67 860.22 395.33 860.22 395.33 928.47 437.32 928.47 437.32 913.87 412.67 913.87 412.67 860.22"/>
  <path class="cls-1" d="M523.37,894.54h-14.41c.28,3.32-.09,6.82-1.14,9.95l-9.1-9.38c5.12-2.56,12.99-7.87,12.99-18.77,0-9.2-9.1-17.44-20.19-17.44s-20.1,8.34-20.1,17.63c0,7.49,2.56,11.75,6.45,16.21-6.73,3.7-12.61,9.48-12.61,17.72,0,10.24,8.34,19.34,26.63,19.34,6.73,0,12.51-1.61,17.25-4.83l3.32,3.51h18.29l-12.04-12.51c3.98-5.97,5.31-13.56,4.64-21.42ZM491.53,871.98c3.32,0,5.88,2.56,5.88,5.78,0,3.79-3.98,6.54-7.3,8.34-2.75-2.84-4.45-5.02-4.45-8.34s2.65-5.78,5.88-5.78ZM492,916.72c-7.2,0-11-3.41-11-7.68,0-3.41,2.27-5.88,5.12-7.77l13.08,13.46c-2.08,1.33-4.64,1.99-7.2,1.99Z"/>
  <polygon class="cls-1" points="553.88 874.82 572.08 874.82 572.08 928.47 589.52 928.47 589.52 874.82 607.72 874.82 607.72 860.22 553.88 860.22 553.88 874.82"/>
  <path class="cls-1" d="M650.75,858.9c-21.04,0-36.11,15.92-36.11,35.45s15.07,35.45,36.11,35.45,36.11-15.64,36.11-35.45-15.07-35.45-36.11-35.45ZM650.75,913.97c-11.09,0-18.67-9.01-18.67-19.62s7.58-19.62,18.67-19.62,18.58,9.1,18.58,19.62-7.49,19.62-18.58,19.62Z"/>
  <path class="cls-1" d="M741.16,901.27c0,8.06-4.17,12.7-12.23,12.7s-12.32-4.65-12.32-12.7v-41.04h-17.34v42.94c0,16.02,10.99,26.63,29.67,26.63s29.67-10.62,29.67-26.63v-42.94h-17.44v41.04Z"/>
  <path class="cls-1" d="M827.32,883.45c0-15.36-11.28-23.22-27.58-23.22h-24.83v68.25h16.97v-22.46h7.58l11,22.46h18.1l-13.74-25.31c7.49-3.32,12.51-9.86,12.51-19.72ZM800.59,892.17h-8.72v-17.34h8.63c5.21,0,9.29,2.65,9.29,8.63s-3.98,8.72-9.19,8.72Z"/>
  <rect class="cls-1" x="841.34" y="860.22" width="17.35" height="68.25"/>
  <path class="cls-1" d="M901.05,888.09c-7.96-3.22-11.94-5.4-11.94-8.63,0-3.41,3.98-5.59,10.24-5.59s12.7,1.71,16.78,4.27v-16.02c-4.55-1.89-11.37-3.22-18.2-3.22-15.54,0-25.88,8.15-25.88,20.66s7.39,17.25,18.86,21.61c8.34,3.13,12.61,4.93,12.61,8.53,0,2.84-3.13,4.36-8.72,4.74-1.71.09-3.51.09-5.4-.1-5.5-.47-11.28-2.37-16.11-4.93v16.68c5.12,2.18,12.89,3.7,20.66,3.7,16.97,0,26.45-7.58,26.45-20.19s-7.87-16.97-19.34-21.52Z"/>
  <path class="cls-1" d="M966.73,889.51l-33.27-30.24h-.38v69.19h16.49v-34.69l4.45,3.7c4.27,4.08,8.44,8.15,12.7,12.13,4.27-3.98,8.44-8.06,12.7-12.13l4.36-3.7v34.69h16.68v-69.19h-.47l-33.27,30.24Z"/>
  <path class="cls-1" d="M351.97,410.31c0-46.04,37.45-83.49,83.49-83.49s79.7,33.81,83.19,76.66c-.14,2.54-.23,5.1-.23,7.68v110.51h54.03v-.85h.53v-110.51c0-2.25-.06-4.48-.17-6.71,3.83-42.51,39.65-75.93,83.13-75.93,46,0,83.43,37.39,83.49,83.38l-1.02,122.41v.23c0,46.04-37.46,83.49-83.49,83.49h-7.18c17.9-23.22,28.58-52.27,28.58-83.79v-125.41h-54.03v125.41c0,46.04-37.45,83.49-83.49,83.49s-83.49-37.45-83.49-83.49l-.39-41.01-54.03.52.39,40.63c.08,75.77,61.74,137.38,137.52,137.38,1.88,0,3.75-.07,5.62-.14v.44h110.51c75.79,0,137.45-61.62,137.52-137.39l1.02-122.43v-.23c0-75.83-61.69-137.52-137.52-137.52-44.89,0-84.81,21.62-109.93,54.99-25.07-33.85-65.29-55.84-110.56-55.84-75.83,0-137.52,61.69-137.52,137.52v110.51h54.03v-110.51Z"/>
  <circle class="cls-1" cx="655.25" cy="203.66" r="53.46"/>
  <circle class="cls-1" cx="433.48" cy="203.66" r="53.46"/>
</svg>