<?xml version="1.0" encoding="UTF-8"?>
<svg id="Layer_1" xmlns="http://www.w3.org/2000/svg" viewBox="0 0 1080 1080">
  <defs>
    <style>
      .cls-1 {
        fill: #234090;
      }

      .cls-2 {
        fill: #edea6b;
      }
    </style>
  </defs>
  <rect class="cls-1" x="26.37" y="26.37" width="1027.26" height="1027.26" rx="120" ry="120"/>
  <g>
    <path class="cls-2" d="M686.55,357.79c-59.67,0-112.75,28.74-146.13,73.1-33.33-45-86.79-74.23-146.97-74.23-100.8,0-182.81,82.01-182.81,182.81v146.9h71.82v-146.9c0-61.2,49.79-110.99,110.99-110.99s105.95,44.95,110.59,101.91c-.19,3.38-.3,6.78-.3,10.21v146.9h71.82v-1.13h.7v-146.9c0-2.99-.08-5.96-.23-8.91,5.1-56.51,52.7-100.94,110.51-100.94,61.15,0,110.91,49.71,110.99,110.84l-1.36,162.73v.3c0,61.2-49.79,110.99-110.99,110.99h-9.55c23.79-30.86,37.99-69.48,37.99-111.38v-166.72h-71.83v166.72c0,61.2-49.79,110.99-110.99,110.99s-110.99-49.79-110.99-110.99l-.52-54.52-71.82.69.52,54.02c.1,100.72,82.07,182.63,182.81,182.63,2.5,0,4.99-.09,7.47-.19v.58h146.9c100.75,0,182.72-81.91,182.81-182.64l1.36-162.75v-.3c0-100.8-82.01-182.81-182.81-182.81Z"/>
    <path class="cls-2" d="M685.61,335.84c39.25,0,71.07-31.82,71.07-71.07s-31.82-71.07-71.07-71.07-71.06,31.82-71.06,71.07,31.82,71.07,71.06,71.07Z"/>
    <path class="cls-2" d="M390.8,335.84c39.25,0,71.07-31.82,71.07-71.07s-31.82-71.07-71.07-71.07-71.07,31.82-71.07,71.07,31.82,71.07,71.07,71.07Z"/>
  </g>
</svg>