<?xml version="1.0" encoding="UTF-8"?>
<svg id="Layer_1" xmlns="http://www.w3.org/2000/svg" viewBox="0 0 1080 1080">
  <defs>
    <style>
      .cls-1 {
        fill: #edea6b;
      }
    </style>
  </defs>
  <path class="cls-1" d="M933.63,26.37H146.37c-66.27,0-120,53.73-120,120v787.26c0,66.27,53.73,120,120,120h787.26c66.27,0,120-53.73,120-120V146.37c0-66.27-53.73-120-120-120ZM685.61,193.71c39.25,0,71.07,31.82,71.07,71.07s-31.82,71.07-71.07,71.07-71.06-31.82-71.06-71.07,31.82-71.07,71.06-71.07ZM390.8,193.71c39.25,0,71.07,31.82,71.07,71.07s-31.82,71.07-71.07,71.07-71.07-31.82-71.07-71.07,31.82-71.07,71.07-71.07ZM869.36,540.9l-1.36,162.75c-.09,100.73-82.06,182.64-182.81,182.64h-146.9v-.58c-2.48.1-4.96.19-7.47.19-100.74,0-182.71-81.91-182.81-182.63l-.52-54.02,71.82-.69.52,54.52c0,61.2,49.79,110.99,110.99,110.99s110.99-49.79,110.99-110.99v-166.72h71.83v166.72c0,41.9-14.2,80.52-37.99,111.38h9.55c61.2,0,110.99-49.79,110.99-110.99v-.3l1.36-162.73c-.08-61.13-49.84-110.84-110.99-110.84-57.81,0-105.42,44.44-110.51,100.94.14,2.96.23,5.93.23,8.91v146.9h-.7v1.13h-71.82v-146.9c0-3.43.11-6.83.3-10.21-4.64-56.97-52.45-101.91-110.59-101.91-61.2,0-110.99,49.79-110.99,110.99v146.9h-71.82v-146.9c0-100.8,82.01-182.81,182.81-182.81,60.18,0,113.63,29.23,146.97,74.23,33.39-44.36,86.46-73.1,146.13-73.1,100.8,0,182.81,82.01,182.81,182.81v.3Z"/>
</svg>